<mxfile host="app.diagrams.net" modified="2023-06-24T07:36:41.917Z" agent="Mozilla/5.0 (Macintosh; Intel Mac OS X 10_15_7) AppleWebKit/537.36 (KHTML, like Gecko) Chrome/114.0.0.0 Safari/537.36" version="21.5.0" etag="KS6GX8dd3NdN7fh2KhLX" type="github">
  <diagram name="Page-1" id="PCwNWhFKD_KLMvKcV8Vr">
    <mxGraphModel>
      <root>
        <mxCell id="0" />
        <mxCell id="1" parent="0" />
      </root>
    </mxGraphModel>
  </diagram>
</mxfile>
